<?xml version="1.0" encoding="iso-8859-1"?>
<!-- Generator: Adobe Illustrator 21.0.0, SVG Export Plug-In . SVG Version: 6.00 Build 0)  -->
<svg xmlns="http://www.w3.org/2000/svg" xmlns:xlink="http://www.w3.org/1999/xlink" version="1.1" id="Capa_1" x="0px" y="0px" viewBox="0 0 512 512" style="enable-background:new 0 0 512 512;" xml:space="preserve" width="512" height="512">
<g>
	<g>
		<g>
			<g>
				<g>
					<g>
						<g>
							<g>
								<g>
									<g>
										<g>
											<circle style="fill:#65B1FC;" cx="256" cy="256" r="256"/>
										</g>
									</g>
								</g>
							</g>
						</g>
					</g>
				</g>
			</g>
		</g>
	</g>
	<path style="fill:#3992EA;" d="M275.835,511.241C407.95,501.117,512,390.71,512,256c0-3.158-0.077-6.297-0.191-9.427   l-68.696-68.696l-6.517,32.841L321.619,95.742l-148.175,22.343L89.033,262l56.87,56.87l-30.76,31.68L275.835,511.241z"/>
	<g>
		<polygon style="fill:#23272B;" points="362.117,229.531 443.113,177.878 443.113,334.122 362.117,282.469   "/>
	</g>
	<g>
		<rect x="115.144" y="161.45" style="fill:#555A66;" width="263.473" height="189.1"/>
	</g>
	<g>
		<rect x="255.905" y="161.45" style="fill:#333940;" width="122.712" height="189.1"/>
	</g>
	<g>
		<rect x="89.033" y="177.878" style="fill:#333940;" width="26.11" height="84.122"/>
	</g>
	<g>
		<rect x="146.128" y="268.234" style="fill:#333940;" width="191.205" height="53.997"/>
	</g>
	<g>
		<rect x="255.905" y="268.234" style="fill:#23272B;" width="81.429" height="53.997"/>
	</g>
	<g>
		<polygon style="fill:#555A66;" points="171.627,187.988 141.627,187.988 141.627,95.742 321.619,95.742 321.619,125.742     171.627,125.742   "/>
	</g>
	<g>
		<rect x="255.905" y="95.742" style="fill:#333940;" width="65.714" height="30"/>
	</g>
</g>















</svg>
