<svg height="512pt" viewBox="0 0 512 512" width="512pt" xmlns="http://www.w3.org/2000/svg"><path d="m256 0c-140.699219 0-256 115.300781-256 256s115.300781 256 256 256 256-115.300781 256-256-115.300781-256-256-256zm0 0" fill="#3aaaff"/><path d="m512 256c0 140.699219-115.300781 256-256 256v-512c140.699219 0 256 115.300781 256 256zm0 0" fill="#0095ff"/><path d="m374.199219 163c-8.101563-42.601562-48.296875-72-91.800781-72h-101.398438c-8.402344 0-15 6.597656-15 15v300c0 8.398438 6.597656 15 15 15h30c8.402344 0 15-6.601562 15-15v-135h60c55.5 0 99.300781-50.398438 88.199219-108zm-88.199219 48h-60v-60h60c16.5 0 30 13.5 30 30s-13.5 30-30 30zm0 0" fill="#e2e2e7"/><path d="m286 271h-30v-60h30c16.5 0 30-13.5 30-30s-13.5-30-30-30h-30v-60h26.398438c43.5 0 83.699218 29.398438 91.800781 72 11.101562 57.601562-32.699219 108-88.199219 108zm0 0" fill="#d3d3d8"/></svg>